<?xml version="1.0" encoding="UTF-8"?>
<svg width="102.33px" height="559.67px" enable-background="new 0 0 102.327 559.666" version="1.1" viewBox="0 0 102.327 559.666" xmlns="http://www.w3.org/2000/svg">
 <linearGradient id="a" x1="33.997" x2="68.331" y1="420" y2="420" gradientUnits="userSpaceOnUse">
  <stop stop-color="#BDBDBD" offset=".0056"/>
  <stop stop-color="#7F7F7F" offset=".3596"/>
  <stop stop-color="#8E8E8E" offset=".5421"/>
  <stop stop-color="#999" offset=".6517"/>
  <stop stop-color="#9C9C9C" offset=".8652"/>
  <stop stop-color="#999" offset="1"/>
  <stop stop-color="#ccc" offset="1"/>
 </linearGradient>
 <rect x="33.997" y="280.33" width="34.334" height="279.33" fill="url(#a)"/>
 <path d="m72.231 286.26h-42.135c-14.665 0-26.596-11.93-26.596-26.595v-229.57c0-14.666 11.931-26.596 26.596-26.596h42.135c14.666 0 26.596 11.93 26.596 26.596v229.57c0 14.665-11.93 26.595-26.596 26.595z" fill="#754C24"/>
 <path d="M72.231,0c16.62,0,30.096,13.476,30.096,30.096v229.572c0,16.62-13.476,30.095-30.096,30.095H30.096 C13.476,289.763,0,276.288,0,259.668V30.096C0,13.476,13.476,0,30.096,0H72.231 M72.231,7H30.096C17.361,7,7,17.361,7,30.096 v229.572c0,12.735,10.361,23.095,23.096,23.095h42.135c12.735,0,23.096-10.36,23.096-23.095V30.096 C95.327,17.361,84.966,7,72.231,7L72.231,7z" fill="#A67C52"/>
 <circle cx="51.164" cy="133.58" r="35" fill="#1A1A1A"/>
 <circle cx="51.164" cy="143.58" r="35" fill="#333"/>
 <path d="m86.164 143.58c0 19.331-15.67 35-35 35-8.386 0-16.083-2.949-22.111-7.867 0 1e-3 45.111 12.868 57.111-27.133z" fill="#1A1A1A"/>
 <path d="m51.497 110.25v6s-20.667 1.333-31 18.667c0 0 4.334-21.667 31-24.667z" fill="#fff"/>
 <circle cx="51.164" cy="47.583" r="35" fill="#1A1A1A"/>
 <circle cx="51.164" cy="57.583" r="35" fill="#333"/>
 <path d="m86.164 57.583c0 19.331-15.67 35-35 35-8.386 0-16.083-2.949-22.111-7.867 0 1e-3 45.111 12.868 57.111-27.133z" fill="#1A1A1A"/>
 <path d="m51.497 24.25v6s-20.667 1.333-31 18.667c0 0 4.334-21.667 31-24.667z" fill="#fff"/>
 <circle cx="51.164" cy="220.17" r="35" fill="#1A1A1A"/>
 <circle cx="51.164" cy="230.17" r="35" fill="#0f0"/>
 <path d="m86.164 230.17c0 19.33-15.67 35-35 35-8.386 0-16.083-2.949-22.111-7.867 0 0 45.111 12.867 57.111-27.133z" fill="#009245"/>
 <path d="m51.497 196.83v6s-20.667 1.333-31 18.667c0 0 4.334-21.667 31-24.667z" fill="#fff"/>
</svg>
