<?xml version="1.0" encoding="UTF-8" standalone="no"?>
<!-- Created with Inkscape (http://www.inkscape.org/) -->

<svg
   xmlns:dc="http://purl.org/dc/elements/1.1/"
   xmlns:cc="http://creativecommons.org/ns#"
   xmlns:rdf="http://www.w3.org/1999/02/22-rdf-syntax-ns#"
   xmlns:svg="http://www.w3.org/2000/svg"
   xmlns="http://www.w3.org/2000/svg"
   xmlns:xlink="http://www.w3.org/1999/xlink"
   xmlns:sodipodi="http://sodipodi.sourceforge.net/DTD/sodipodi-0.dtd"
   xmlns:inkscape="http://www.inkscape.org/namespaces/inkscape"
   width="731.52002mm"
   height="548.64001mm"
   viewBox="0 0 2592.0001 1944"
   id="svg2"
   version="1.1"
   inkscape:version="0.91 r13725"
   sodipodi:docname="pelican.svg">
  <defs
     id="defs4" />
  <sodipodi:namedview
     id="base"
     pagecolor="#ffffff"
     bordercolor="#666666"
     borderopacity="1.0"
     inkscape:pageopacity="0.0"
     inkscape:pageshadow="2"
     inkscape:zoom="0.35"
     inkscape:cx="1681.0001"
     inkscape:cy="794.85716"
     inkscape:document-units="px"
     inkscape:current-layer="layer1"
     showgrid="false"
     fit-margin-top="0"
     fit-margin-left="0"
     fit-margin-right="0"
     fit-margin-bottom="0"
     inkscape:window-width="2017"
     inkscape:window-height="1018"
     inkscape:window-x="46"
     inkscape:window-y="36"
     inkscape:window-maximized="0" />
  <metadata
     id="metadata7">
    <rdf:RDF>
      <cc:Work
         rdf:about="">
        <dc:format>image/svg+xml</dc:format>
        <dc:type
           rdf:resource="http://purl.org/dc/dcmitype/StillImage" />
        <dc:title></dc:title>
      </cc:Work>
    </rdf:RDF>
  </metadata>
  <g
     inkscape:label="Ebene 1"
     inkscape:groupmode="layer"
     id="layer1"
     transform="translate(2284.5715,616.78064)">
    <image
       sodipodi:absref="/home/klute/itemis/yakindu_statechart_tools/sct-examples/traffic_light_java/images/pelican_crossing_original.jpg"
       xlink:href="pelican_crossing_original.jpg"
       width="2592"
       height="1944"
       preserveAspectRatio="none"
       id="image3433"
       x="-2284.5715"
       y="-616.78064" />
    <g
       id="g4461"
       transform="matrix(0.6744186,0,0,0.6744186,-623.81842,248.49189)">
      <rect
         y="938.73529"
         x="782.14941"
         height="614.28571"
         width="540.00006"
         id="rect3659"
         style="color:black;display:inline;overflow:visible;visibility:visible;opacity:1;fill:white;fill-opacity:1;fill-rule:nonzero;stroke:none;stroke-width:25;stroke-linecap:round;stroke-linejoin:miter;stroke-miterlimit:4;stroke-dasharray:none;stroke-dashoffset:0;stroke-opacity:1;marker:none;enable-background:accumulate" />
      <g
         transform="matrix(1.999636,0,0,-1.9991737,535.73049,1956.2208)"
         id="g10">
        <path
           d="m 274.21,470.8 c 3.625,-4.128 4.822,-10.033 3.781,-15.358 -1.121,-5.981 -4.439,-11.268 -8.336,-15.822 -3.125,-3.666 -6.715,-6.907 -10.457,-9.917 -4.361,-3.512 -8.645,-7.293 -11.384,-12.233 -2.316,-4.013 -2.856,-8.952 -1.274,-13.313 2.585,-7.486 8.606,-13.043 11.886,-20.105 -3.628,3.203 -7.178,6.522 -10.497,10.033 -3.473,3.705 -6.753,7.641 -8.914,12.272 -1.466,3.242 -2.122,7.023 -1.003,10.457 1.119,3.512 3.627,6.329 6.136,8.953 6.984,6.985 15.589,12.117 22.419,19.217 3.784,3.898 6.909,8.567 7.989,13.931 0.888,3.936 0.463,7.988 -0.346,11.885"
           id="path156"
           inkscape:connector-curvature="0"
           style="fill:#e9232e" />
        <path
           stroke-miterlimit="10"
           d="m 274.21,470.8 c 3.625,-4.128 4.822,-10.033 3.781,-15.358 -1.121,-5.981 -4.439,-11.268 -8.336,-15.822 -3.125,-3.666 -6.715,-6.907 -10.457,-9.917 -4.361,-3.512 -8.645,-7.293 -11.384,-12.233 -2.316,-4.013 -2.856,-8.952 -1.274,-13.313 2.585,-7.486 8.606,-13.043 11.886,-20.105 -3.628,3.203 -7.178,6.522 -10.497,10.033 -3.473,3.705 -6.753,7.641 -8.914,12.272 -1.466,3.242 -2.122,7.023 -1.003,10.457 1.119,3.512 3.627,6.329 6.136,8.953 6.984,6.985 15.589,12.117 22.419,19.217 3.784,3.898 6.909,8.567 7.989,13.931 0.888,3.936 0.463,7.988 -0.346,11.885 z"
           id="path158"
           inkscape:connector-curvature="0"
           style="fill:none;stroke:#e9232e;stroke-width:0.0869066;stroke-miterlimit:10" />
        <path
           d="m 268.5,426.85 c 7.486,5.519 16.246,9.03 25.121,11.577 -7.021,-4.476 -14.353,-8.566 -20.412,-14.316 -2.201,-2.122 -4.283,-4.554 -5.248,-7.525 -0.734,-2.2 -0.426,-4.631 0.463,-6.715 1.621,-3.704 4.359,-6.714 6.443,-10.11 1.776,-2.894 2.084,-6.599 0.735,-9.725 -2.047,-4.592 -6.059,-7.949 -10.227,-10.611 -0.541,-0.309 -1.004,-0.888 -1.66,-0.965 2.779,2.508 4.939,6.058 4.863,9.879 -0.078,2.855 -1.66,5.363 -3.512,7.409 -3.82,4.553 -7.023,10.342 -6.367,16.477 0.656,6.136 5.055,11.075 9.801,14.625"
           id="path160"
           inkscape:connector-curvature="0"
           style="fill:#e9232e" />
        <path
           stroke-miterlimit="10"
           d="m 268.5,426.85 c 7.486,5.519 16.246,9.03 25.121,11.577 -7.021,-4.476 -14.353,-8.566 -20.412,-14.316 -2.201,-2.122 -4.283,-4.554 -5.248,-7.525 -0.734,-2.2 -0.426,-4.631 0.463,-6.715 1.621,-3.704 4.359,-6.714 6.443,-10.11 1.776,-2.894 2.084,-6.599 0.735,-9.725 -2.047,-4.592 -6.059,-7.949 -10.227,-10.611 -0.541,-0.309 -1.004,-0.888 -1.66,-0.965 2.779,2.508 4.939,6.058 4.863,9.879 -0.078,2.855 -1.66,5.363 -3.512,7.409 -3.82,4.553 -7.023,10.342 -6.367,16.477 0.656,6.136 5.055,11.075 9.801,14.625 z"
           id="path162"
           inkscape:connector-curvature="0"
           style="fill:none;stroke:#e9232e;stroke-width:0.0869066;stroke-miterlimit:10" />
        <path
           d="m 295.05,382.24 c 1.619,1.968 4.205,2.47 6.558,2.779 4.092,0.54 8.452,-0.502 11.539,-3.319 2.547,-2.276 3.975,-5.827 3.434,-9.261 -0.578,-3.975 -3.242,-7.294 -6.25,-9.802 -5.441,-4.36 -12.156,-6.907 -18.871,-8.605 0.387,0.425 0.811,0.81 1.312,1.119 5.094,2.74 10.149,5.942 13.893,10.419 2.275,2.778 4.051,6.406 3.318,10.072 -0.771,4.244 -4.9,7.332 -9.107,7.563 -2.008,0.193 -3.897,-0.579 -5.826,-0.965"
           id="path164"
           inkscape:connector-curvature="0"
           style="fill:#3471c0" />
        <path
           stroke-miterlimit="10"
           d="m 295.05,382.24 c 1.619,1.968 4.205,2.47 6.558,2.779 4.092,0.54 8.452,-0.502 11.539,-3.319 2.547,-2.276 3.975,-5.827 3.434,-9.261 -0.578,-3.975 -3.242,-7.294 -6.25,-9.802 -5.441,-4.36 -12.156,-6.907 -18.871,-8.605 0.387,0.425 0.811,0.81 1.312,1.119 5.094,2.74 10.149,5.942 13.893,10.419 2.275,2.778 4.051,6.406 3.318,10.072 -0.771,4.244 -4.9,7.332 -9.107,7.563 -2.008,0.193 -3.897,-0.579 -5.826,-0.965 z"
           id="path166"
           inkscape:connector-curvature="0"
           style="fill:none;stroke:#3471c0;stroke-width:0.0869066;stroke-miterlimit:10" />
        <path
           d="m 217.48,378.73 c 7.1,3.048 14.818,5.016 22.574,4.901 -4.515,-1.312 -9.145,-2.431 -13.39,-4.438 -1.003,-0.54 -2.161,-1.042 -2.74,-2.084 -0.308,-0.81 0.54,-1.35 1.157,-1.62 2.624,-1.081 5.519,-1.236 8.336,-1.506 9.878,-0.656 19.796,-0.27 29.638,0.348 9.722,0.617 19.371,1.929 28.978,3.473 -2.121,-1.004 -4.283,-2.007 -6.25,-3.28 -1.004,-0.695 -2.238,-0.888 -3.357,-1.158 -11.809,-2.624 -23.927,-3.435 -35.966,-3.627 -4.67,-0.039 -9.299,0.038 -13.93,0.347 -5.171,0.347 -10.381,0.733 -15.436,2.084 -1.467,0.424 -3.01,0.887 -4.168,1.929 -0.579,0.463 -0.579,1.39 -0.077,1.929 1.273,1.313 3.049,1.93 4.631,2.702"
           id="path168"
           inkscape:connector-curvature="0"
           style="fill:#3471c0" />
        <path
           stroke-miterlimit="10"
           d="m 217.48,378.73 c 7.1,3.048 14.818,5.016 22.574,4.901 -4.515,-1.312 -9.145,-2.431 -13.39,-4.438 -1.003,-0.54 -2.161,-1.042 -2.74,-2.084 -0.308,-0.81 0.54,-1.35 1.157,-1.62 2.624,-1.081 5.519,-1.236 8.336,-1.506 9.878,-0.656 19.796,-0.27 29.638,0.348 9.722,0.617 19.371,1.929 28.978,3.473 -2.121,-1.004 -4.283,-2.007 -6.25,-3.28 -1.004,-0.695 -2.238,-0.888 -3.357,-1.158 -11.809,-2.624 -23.927,-3.435 -35.966,-3.627 -4.67,-0.039 -9.299,0.038 -13.93,0.347 -5.171,0.347 -10.381,0.733 -15.436,2.084 -1.467,0.424 -3.01,0.887 -4.168,1.929 -0.579,0.463 -0.579,1.39 -0.077,1.929 1.273,1.313 3.049,1.93 4.631,2.702 z"
           id="path170"
           inkscape:connector-curvature="0"
           style="fill:none;stroke:#3471c0;stroke-width:0.0869066;stroke-miterlimit:10" />
        <path
           d="m 226.59,362.25 c 2.007,1.582 4.4,2.47 6.792,3.319 -0.771,-0.926 -1.852,-1.814 -1.929,-3.087 -0.038,-0.81 0.618,-1.428 1.273,-1.814 1.273,-0.656 2.701,-0.888 4.13,-1.08 7.408,-0.772 14.894,-1.197 22.381,-0.695 6.829,0.347 13.622,1.467 20.376,2.663 1.852,-1.737 4.051,-2.933 6.367,-3.975 -8.144,-2.392 -16.517,-3.782 -24.929,-4.438 -7.949,-0.54 -16.014,-0.502 -23.926,0.773 -3.126,0.578 -6.328,1.234 -9.183,2.7 -1.158,0.618 -2.47,1.428 -2.818,2.779 -0.231,1.157 0.618,2.199 1.466,2.855"
           id="path172"
           inkscape:connector-curvature="0"
           style="fill:#3471c0" />
        <path
           stroke-miterlimit="10"
           d="m 226.59,362.25 c 2.007,1.582 4.4,2.47 6.792,3.319 -0.771,-0.926 -1.852,-1.814 -1.929,-3.087 -0.038,-0.81 0.618,-1.428 1.273,-1.814 1.273,-0.656 2.701,-0.888 4.13,-1.08 7.408,-0.772 14.894,-1.197 22.381,-0.695 6.829,0.347 13.622,1.467 20.376,2.663 1.852,-1.737 4.051,-2.933 6.367,-3.975 -8.144,-2.392 -16.517,-3.782 -24.929,-4.438 -7.949,-0.54 -16.014,-0.502 -23.926,0.773 -3.126,0.578 -6.328,1.234 -9.183,2.7 -1.158,0.618 -2.47,1.428 -2.818,2.779 -0.231,1.157 0.618,2.199 1.466,2.855 z"
           id="path174"
           inkscape:connector-curvature="0"
           style="fill:none;stroke:#3471c0;stroke-width:0.0869066;stroke-miterlimit:10" />
        <path
           d="m 231.07,345.43 c 1.775,1.428 3.974,2.162 6.136,2.779 -0.695,-0.655 -1.93,-1.466 -1.389,-2.585 1.042,-1.352 2.971,-1.506 4.515,-1.854 6.521,-0.809 13.12,-1.349 19.642,-0.847 4.939,0.308 9.8,1.195 14.625,2.045 2.777,-1.622 5.672,-3.01 8.642,-4.246 -4.552,-2.044 -9.453,-3.356 -14.353,-4.283 -8.258,-1.466 -16.787,-1.659 -25.084,-0.347 -3.666,0.656 -7.409,1.504 -10.727,3.319 -1.274,0.732 -2.624,1.582 -3.164,3.01 -0.425,1.119 0.269,2.314 1.157,3.009"
           id="path176"
           inkscape:connector-curvature="0"
           style="fill:#3471c0" />
        <path
           stroke-miterlimit="10"
           d="m 231.07,345.43 c 1.775,1.428 3.974,2.162 6.136,2.779 -0.695,-0.655 -1.93,-1.466 -1.389,-2.585 1.042,-1.352 2.971,-1.506 4.515,-1.854 6.521,-0.809 13.12,-1.349 19.642,-0.847 4.939,0.308 9.8,1.195 14.625,2.045 2.777,-1.622 5.672,-3.01 8.642,-4.246 -4.552,-2.044 -9.453,-3.356 -14.353,-4.283 -8.258,-1.466 -16.787,-1.659 -25.084,-0.347 -3.666,0.656 -7.409,1.504 -10.727,3.319 -1.274,0.732 -2.624,1.582 -3.164,3.01 -0.425,1.119 0.269,2.314 1.157,3.009 z"
           id="path178"
           inkscape:connector-curvature="0"
           style="fill:none;stroke:#3471c0;stroke-width:0.0869066;stroke-miterlimit:10" />
        <path
           d="m 209.65,334.51 c 3.551,1.196 7.217,2.161 10.96,2.276 1.505,0.039 3.048,-0.038 4.36,-0.81 -4.476,-0.27 -8.953,-1.389 -12.966,-3.434 -0.887,-0.502 -1.891,-1.081 -2.238,-2.123 0,-1.196 1.351,-1.582 2.238,-1.967 5.596,-2.084 11.577,-2.74 17.443,-3.358 17.48,-1.466 35.076,-1.081 52.557,0.502 6.599,0.733 13.236,1.466 19.642,3.28 2.045,0.695 4.36,1.388 5.711,3.203 0.811,1.08 0.272,2.431 -0.539,3.357 1.311,-0.734 3.164,-1.66 2.895,-3.435 -0.502,-1.852 -2.395,-2.817 -3.938,-3.704 -4.939,-2.509 -10.38,-3.783 -15.783,-4.901 -15.705,-3.087 -31.797,-3.782 -47.773,-3.319 -12.04,0.426 -24.079,1.583 -35.965,3.627 -2.122,0.502 -4.514,0.928 -6.058,2.586 -1.003,1.158 -0.116,2.779 0.848,3.627 2.432,2.238 5.558,3.473 8.606,4.593"
           id="path180"
           inkscape:connector-curvature="0"
           style="fill:#3471c0" />
        <path
           stroke-miterlimit="10"
           d="m 209.65,334.51 c 3.551,1.196 7.217,2.161 10.96,2.276 1.505,0.039 3.048,-0.038 4.36,-0.81 -4.476,-0.27 -8.953,-1.389 -12.966,-3.434 -0.887,-0.502 -1.891,-1.081 -2.238,-2.123 0,-1.196 1.351,-1.582 2.238,-1.967 5.596,-2.084 11.577,-2.74 17.443,-3.358 17.48,-1.466 35.076,-1.081 52.557,0.502 6.599,0.733 13.236,1.466 19.642,3.28 2.045,0.695 4.36,1.388 5.711,3.203 0.811,1.08 0.272,2.431 -0.539,3.357 1.311,-0.734 3.164,-1.66 2.895,-3.435 -0.502,-1.852 -2.395,-2.817 -3.938,-3.704 -4.939,-2.509 -10.38,-3.783 -15.783,-4.901 -15.705,-3.087 -31.797,-3.782 -47.773,-3.319 -12.04,0.426 -24.079,1.583 -35.965,3.627 -2.122,0.502 -4.514,0.928 -6.058,2.586 -1.003,1.158 -0.116,2.779 0.848,3.627 2.432,2.238 5.558,3.473 8.606,4.593 z"
           id="path182"
           inkscape:connector-curvature="0"
           style="fill:none;stroke:#3471c0;stroke-width:0.0869066;stroke-miterlimit:10" />
        <path
           d="m 305.82,321.31 c 3.899,1.351 8.065,2.779 10.959,5.866 -0.502,-3.357 -3.396,-5.673 -6.252,-7.177 -5.478,-2.857 -11.615,-4.168 -17.71,-5.248 -12.891,-2.046 -25.971,-2.547 -39.054,-2.317 -8.914,0.271 -17.905,0.618 -26.665,2.471 -2.084,0.578 -4.322,0.965 -6.135,2.199 7.794,-1.312 15.706,-1.853 23.617,-2.161 13.004,-0.386 26.047,0.115 38.975,1.737 7.486,1.041 15.01,2.315 22.265,4.63"
           id="path184"
           inkscape:connector-curvature="0"
           style="fill:#3471c0" />
        <path
           stroke-miterlimit="10"
           d="m 305.82,321.31 c 3.899,1.351 8.065,2.779 10.959,5.866 -0.502,-3.357 -3.396,-5.673 -6.252,-7.177 -5.478,-2.857 -11.615,-4.168 -17.71,-5.248 -12.891,-2.046 -25.971,-2.547 -39.054,-2.317 -8.914,0.271 -17.905,0.618 -26.665,2.471 -2.084,0.578 -4.322,0.965 -6.135,2.199 7.794,-1.312 15.706,-1.853 23.617,-2.161 13.004,-0.386 26.047,0.115 38.975,1.737 7.486,1.041 15.01,2.315 22.265,4.63 z"
           id="path186"
           inkscape:connector-curvature="0"
           style="fill:none;stroke:#3471c0;stroke-width:0.0869066;stroke-miterlimit:10" />
        <path
           d="m 204.13,264.08 c 0.038,12.657 -0.039,25.314 0.038,38.01 2.624,-0.077 5.248,0 7.872,-0.077 -0.038,-14.163 0,-28.363 -0.038,-42.564 -0.077,-3.975 -0.154,-8.143 -2.084,-11.691 -2.123,-3.784 -5.904,-6.446 -9.917,-7.99 -1.274,1.39 -2.431,2.857 -3.705,4.245 3.242,1.891 6.484,4.592 7.255,8.49 0.734,3.821 0.502,7.717 0.579,11.577"
           id="path188"
           inkscape:connector-curvature="0"
           style="fill:#e9232e" />
        <path
           stroke-miterlimit="10"
           d="m 204.13,264.08 c 0.038,12.657 -0.039,25.314 0.038,38.01 2.624,-0.077 5.248,0 7.872,-0.077 -0.038,-14.163 0,-28.363 -0.038,-42.564 -0.077,-3.975 -0.154,-8.143 -2.084,-11.691 -2.123,-3.784 -5.904,-6.446 -9.917,-7.99 -1.274,1.39 -2.431,2.857 -3.705,4.245 3.242,1.891 6.484,4.592 7.255,8.49 0.734,3.821 0.502,7.717 0.579,11.577 z"
           id="path190"
           inkscape:connector-curvature="0"
           style="fill:none;stroke:#e9232e;stroke-width:0.0869066;stroke-miterlimit:10" />
        <path
           d="m 228.91,268.94 c -1.698,-0.539 -3.28,-1.774 -3.743,-3.549 -0.54,-1.968 -0.386,-4.283 0.887,-5.943 1.236,-1.621 3.474,-2.006 5.403,-1.775 2.701,0.309 5.055,1.853 7.139,3.511 0,2.895 -0.039,5.75 0,8.645 -3.242,0 -6.56,0.192 -9.686,-0.889 z m -9.57,17.906 c 5.209,2.239 10.998,3.397 16.67,2.78 2.933,-0.348 5.982,-1.43 7.872,-3.784 1.582,-2.005 2.162,-4.591 2.123,-7.099 l 0,-25.894 -5.827,0 c -0.193,1.275 -0.385,2.585 -0.54,3.898 -2.2,-1.737 -4.553,-3.396 -7.294,-4.09 -3.126,-0.811 -6.559,-0.734 -9.608,0.463 -2.355,0.964 -4.206,3.086 -4.862,5.556 -0.965,3.589 -0.463,7.795 2.084,10.69 2.276,2.662 5.711,3.974 9.106,4.592 3.126,0.617 6.329,0.617 9.532,0.617 -0.077,2.432 0.386,5.094 -1.004,7.254 -1.119,1.66 -3.164,2.316 -5.054,2.431 -4.129,0.348 -8.22,-0.694 -12.118,-2.045 -0.385,1.543 -0.733,3.087 -1.08,4.631"
           id="path192"
           inkscape:connector-curvature="0"
           style="fill:#e9232e" />
        <path
           stroke-miterlimit="10"
           d="m 228.91,268.94 c -1.698,-0.539 -3.28,-1.774 -3.743,-3.549 -0.54,-1.968 -0.386,-4.283 0.887,-5.943 1.236,-1.621 3.474,-2.006 5.403,-1.775 2.701,0.309 5.055,1.853 7.139,3.511 0,2.895 -0.039,5.75 0,8.645 -3.242,0 -6.56,0.192 -9.686,-0.889 z m -9.57,17.906 c 5.209,2.239 10.998,3.397 16.67,2.78 2.933,-0.348 5.982,-1.43 7.872,-3.784 1.582,-2.005 2.162,-4.591 2.123,-7.099 l 0,-25.894 -5.827,0 c -0.193,1.275 -0.385,2.585 -0.54,3.898 -2.2,-1.737 -4.553,-3.396 -7.294,-4.09 -3.126,-0.811 -6.559,-0.734 -9.608,0.463 -2.355,0.964 -4.206,3.086 -4.862,5.556 -0.965,3.589 -0.463,7.795 2.084,10.69 2.276,2.662 5.711,3.974 9.106,4.592 3.126,0.617 6.329,0.617 9.532,0.617 -0.077,2.432 0.386,5.094 -1.004,7.254 -1.119,1.66 -3.164,2.316 -5.054,2.431 -4.129,0.348 -8.22,-0.694 -12.118,-2.045 -0.385,1.543 -0.733,3.087 -1.08,4.631"
           id="path194"
           inkscape:connector-curvature="0"
           style="fill:none;stroke:#e9232e;stroke-width:0.0869066;stroke-miterlimit:10" />
        <path
           d="m 296.63,268.91 c -1.621,-0.54 -3.127,-1.774 -3.629,-3.473 -0.539,-1.967 -0.385,-4.284 0.85,-5.981 1.273,-1.659 3.55,-2.006 5.517,-1.775 2.664,0.386 5.094,1.853 7.102,3.627 -0.078,2.817 -0.039,5.673 -0.039,8.529 -3.28,0 -6.637,0.192 -9.801,-0.927 z m -9.455,17.944 c 5.248,2.239 11.037,3.434 16.748,2.78 2.855,-0.348 5.789,-1.391 7.678,-3.629 1.775,-2.121 2.316,-4.94 2.277,-7.641 -0.039,-8.527 0.039,-17.017 -0.076,-25.545 -1.93,0.076 -3.86,-0.039 -5.789,0.076 -0.194,1.313 -0.348,2.586 -0.578,3.86 -2.702,-2.316 -5.944,-4.207 -9.61,-4.515 -3.357,-0.309 -7.139,0.115 -9.764,2.509 -2.74,2.546 -3.201,6.675 -2.507,10.187 0.656,3.241 3.088,5.904 6.019,7.332 4.592,2.238 9.842,2.354 14.858,2.315 -0.079,2.353 0.347,4.862 -0.85,6.984 -0.926,1.699 -2.895,2.471 -4.746,2.663 -4.283,0.463 -8.566,-0.618 -12.58,-2.007 -0.348,1.543 -0.733,3.087 -1.08,4.631"
           id="path196"
           inkscape:connector-curvature="0"
           style="fill:#e9232e" />
        <path
           stroke-miterlimit="10"
           d="m 296.63,268.91 c -1.621,-0.54 -3.127,-1.774 -3.629,-3.473 -0.539,-1.967 -0.385,-4.284 0.85,-5.981 1.273,-1.659 3.55,-2.006 5.517,-1.775 2.664,0.386 5.094,1.853 7.102,3.627 -0.078,2.817 -0.039,5.673 -0.039,8.529 -3.28,0 -6.637,0.192 -9.801,-0.927 z m -9.455,17.944 c 5.248,2.239 11.037,3.434 16.748,2.78 2.855,-0.348 5.789,-1.391 7.678,-3.629 1.775,-2.121 2.316,-4.94 2.277,-7.641 -0.039,-8.527 0.039,-17.017 -0.076,-25.545 -1.93,0.076 -3.86,-0.039 -5.789,0.076 -0.194,1.313 -0.348,2.586 -0.578,3.86 -2.702,-2.316 -5.944,-4.207 -9.61,-4.515 -3.357,-0.309 -7.139,0.115 -9.764,2.509 -2.74,2.546 -3.201,6.675 -2.507,10.187 0.656,3.241 3.088,5.904 6.019,7.332 4.592,2.238 9.842,2.354 14.858,2.315 -0.079,2.353 0.347,4.862 -0.85,6.984 -0.926,1.699 -2.895,2.471 -4.746,2.663 -4.283,0.463 -8.566,-0.618 -12.58,-2.007 -0.348,1.543 -0.733,3.087 -1.08,4.631"
           id="path198"
           inkscape:connector-curvature="0"
           style="fill:none;stroke:#e9232e;stroke-width:0.0869066;stroke-miterlimit:10" />
        <path
           d="m 250.4,289.17 8.103,0 c 1.583,-5.093 3.126,-10.149 4.71,-15.242 0.924,-3.125 2.082,-6.213 2.738,-9.416 0.348,-1.428 0.656,-2.895 1.08,-4.284 3.321,9.377 5.867,19.064 7.18,28.942 l 7.871,0 c -2.277,-12.502 -5.865,-24.812 -11.268,-36.312 l -9.261,0 c -3.705,12.117 -7.448,24.195 -11.153,36.312"
           id="path200"
           inkscape:connector-curvature="0"
           style="fill:#e9232e" />
        <path
           stroke-miterlimit="10"
           d="m 250.4,289.17 8.103,0 c 1.583,-5.093 3.126,-10.149 4.71,-15.242 0.924,-3.125 2.082,-6.213 2.738,-9.416 0.348,-1.428 0.656,-2.895 1.08,-4.284 3.321,9.377 5.867,19.064 7.18,28.942 l 7.871,0 c -2.277,-12.502 -5.865,-24.812 -11.268,-36.312 l -9.261,0 c -3.705,12.117 -7.448,24.195 -11.153,36.312 z"
           id="path202"
           inkscape:connector-curvature="0"
           style="fill:none;stroke:#e9232e;stroke-width:0.0869066;stroke-miterlimit:10" />
        <path
           d="m 315.42,289.87 -0.947,0 0,0.343 2.308,0 0,-0.343 -0.953,0 0,-2.777 -0.408,0 0,2.777"
           id="path204"
           inkscape:connector-curvature="0"
           style="fill:#e9232e" />
        <path
           stroke-miterlimit="10"
           d="m 315.42,289.87 -0.947,0 0,0.343 2.308,0 0,-0.343 -0.953,0 0,-2.777 -0.408,0 0,2.777 z"
           id="path206"
           inkscape:connector-curvature="0"
           style="fill:none;stroke:#e9232e;stroke-width:0.0869066;stroke-miterlimit:10" />
        <path
           d="m 319.76,288.46 c -0.022,0.435 -0.051,0.963 -0.051,1.346 l -0.008,0 c -0.111,-0.36 -0.236,-0.754 -0.394,-1.184 l -0.551,-1.514 -0.305,0 -0.51,1.486 c -0.146,0.444 -0.267,0.842 -0.355,1.212 l -0.01,0 c -0.01,-0.388 -0.033,-0.907 -0.06,-1.379 l -0.082,-1.337 -0.385,0 0.217,3.12 0.513,0 0.534,-1.51 c 0.128,-0.384 0.23,-0.727 0.314,-1.051 l 0.01,0 c 0.082,0.316 0.193,0.658 0.332,1.051 l 0.556,1.51 0.514,0 0.193,-3.12 -0.398,0 -0.074,1.37"
           id="path208"
           inkscape:connector-curvature="0"
           style="fill:#e9232e" />
        <path
           stroke-miterlimit="10"
           d="m 319.76,288.46 c -0.022,0.435 -0.051,0.963 -0.051,1.346 l -0.008,0 c -0.111,-0.36 -0.236,-0.754 -0.394,-1.184 l -0.551,-1.514 -0.305,0 -0.51,1.486 c -0.146,0.444 -0.267,0.842 -0.355,1.212 l -0.01,0 c -0.01,-0.388 -0.033,-0.907 -0.06,-1.379 l -0.082,-1.337 -0.385,0 0.217,3.12 0.513,0 0.534,-1.51 c 0.128,-0.384 0.23,-0.727 0.314,-1.051 l 0.01,0 c 0.082,0.316 0.193,0.658 0.332,1.051 l 0.556,1.51 0.514,0 0.193,-3.12 -0.398,0 -0.074,1.37 z"
           id="path210"
           inkscape:connector-curvature="0"
           style="fill:none;stroke:#e9232e;stroke-width:0.0869066;stroke-miterlimit:10" />
      </g>
    </g>
  </g>
</svg>
