<?xml version="1.0" encoding="utf-8"?>

<!DOCTYPE svg PUBLIC "-//W3C//DTD SVG 1.1//EN" "http://www.w3.org/Graphics/SVG/1.1/DTD/svg11.dtd">
<svg version="1.1" id="Layer_1" xmlns="http://www.w3.org/2000/svg" xmlns:xlink="http://www.w3.org/1999/xlink" x="0px" y="0px"
	 viewBox="0 0 1133.26 1813.493" enable-background="new 0 0 1133.26 1813.493" xml:space="preserve">
<path d="M259.994,1627.544l-134.066-69.672c-27.294-14.184-37.892-48.437-22.318-74.962c0.117-0.198,0.222-0.404,0.352-0.595
	c20.072-29.311,47.127-30.98,75.615-10.802l338.467-598.919l-24.81-229.762c-0.877-8.125-11.646-10.368-15.694-3.269
	l-58.965,103.403c-7.068,12.395-18.329,21.861-31.756,26.692l-256.006,92.119c-9.814,3.531-20.587,4.376-30.549,1.287
	c-15.305-4.747-24.502-16.306-29.908-32.478c-5.347-15.997-5.884-31.553,5.704-46.489c6.626-8.541,15.846-14.703,25.997-18.417
	l209.078-76.492c17.329-6.34,31.784-18.729,40.7-34.885c0,0,74.19-150.04,107.397-194.591
	c15.611-20.943,38.374-29.697,61.212-28.806l-2.401-80.416c-70.036-34.903-101.958-89.017-80.416-159.632
	c27.907-91.48,138.027-100.22,193.238-64.813c67.748,43.447,83.524,123.689,38.408,189.638
	c-12.46,18.213-27.464,31.654-45.609,40.808l7.201,63.613c46.681,6.615,83.8,31.068,115.223,70.814
	c40.899,51.733,170.645,201.158,170.645,201.158c6.97,8.217,11.994,17.902,14.697,28.332l81.11,313.018
	c3.367,22.27-10.635,39.001-38.408,45.609c-26.61,6.331-49.21,3.301-59.813-29.767c-0.138-0.163-0.228-0.347-0.284-0.553
	l-73.074-270.483c-4.773-17.666-13.585-33.981-25.742-47.657l-92.69-104.276c-6.991-7.865-19.94-1.908-18.516,8.518l32.472,237.778
	l330.066,778.955l-165.633,54.011c-31.006,5.601-47.469-9.32-55.211-30.006c-14.296-38.198,1.855-64.681,37.207-74.415
	l-229.245-536.506c-15.403-32.206-47.409-39.608-64.813-9.602L259.994,1627.544z"/>
</svg>
